<svg xmlns="http://www.w3.org/2000/svg" fill="none" viewBox="0 0 24 24"><path fill="#ffffff" fill-rule="evenodd" d="M13.7264 22.1668C13.8456 22.1466 13.9682 22.1679 14.0736 22.2271C14.9679 22.7339 15.9785 22.9995 17.0063 22.998C18.0606 22.9916 19.0948 22.7087 20.0056 22.1776C20.9164 21.6464 21.6718 20.8856 22.1966 19.9711C22.7213 19.0566 22.9969 18.0205 22.9959 16.9661C22.9948 15.9118 22.7172 14.8762 22.1907 13.9627C22.1308 13.8593 22.1082 13.7384 22.1266 13.6203C22.6833 10.099 21.3639 6.44788 18.6387 4.13323C16.3479 2.18743 13.2482 1.33611 10.2849 1.83884C10.1657 1.85894 10.0433 1.83696 9.93859 1.77666C9.03988 1.26464 8.02301 0.996245 6.98868 0.998056C5.93621 1.00459 4.90381 1.28666 3.99423 1.81619C3.08465 2.34572 2.32963 3.10424 1.8043 4.01625C1.27898 4.92826 1.00168 5.96196 1.00001 7.01444C0.998335 8.06693 1.27235 9.1015 1.79477 10.0152C1.85403 10.1192 1.87597 10.2404 1.85694 10.3586C1.28577 13.8946 2.61079 17.5682 5.35232 19.8891C7.65073 21.8349 10.7591 22.6804 13.7264 22.1668ZM12.0969 5.0132C15.2575 5.19584 17.1086 6.5958 17.2885 7.89987C17.4074 8.74319 16.6822 9.49896 15.8347 9.41489C15.2162 9.41489 14.838 9.05615 14.4088 8.64898C13.8456 8.11474 13.1945 7.49714 11.7974 7.49714C10.6869 7.49714 9.74902 7.96105 9.74902 8.96741C9.74902 9.81284 11.027 10.1205 12.5543 10.4881C14.8213 11.0337 17.6374 11.7115 17.6374 14.4768C17.6374 17.1452 15.5114 18.8931 12.3407 18.8931C9.54994 18.8931 6.74363 17.6219 6.75824 15.4339C6.73594 14.7801 7.25248 14.2097 7.90524 14.1673C8.63199 14.1673 9.03457 14.6469 9.48376 15.1821C10.0506 15.8574 10.6916 16.6211 12.1517 16.6211C13.9872 16.6211 14.6174 15.6165 14.6174 14.9134C14.6174 13.8455 13.2063 13.504 11.5742 13.109C9.33575 12.5673 6.68153 11.9249 6.68153 9.17015C6.67514 6.5958 8.78375 4.81777 12.0969 5.0132Z" clip-rule="evenodd"></path></svg>