<svg xmlns="http://www.w3.org/2000/svg" fill="none" viewBox="-0.25 -0.25 24.5 24.5" height="48" width="48" stroke-width="1.5"><path stroke="#ffffff" stroke-linejoin="round" d="M20.229 9.99994C20.229 5.7391 13.5001 4.77734 13.5001 4.77734C13.5001 4.77734 17.2207 7.99007 17.5716 9.99996C17.9476 12.1543 16.3867 15.5163 16.3867 15.5163C16.3867 15.5163 20.229 13.4786 20.229 9.99994Z"></path><path stroke="#ffffff" stroke-linejoin="round" d="M12 3C6.20101 3 1.5 6.35786 1.5 10.5C1.5 14.1031 5.05704 17.1127 9.79967 17.8351C9.39332 19.1942 6.88199 21.5 6.88199 21.5C8.88199 21.5 12.8254 20.4922 14.3782 17.8068C19.0316 17.0371 22.5 14.0579 22.5 10.5C22.5 6.35786 17.799 3 12 3Z"></path></svg>